<mxfile host="65bd71144e">
    <diagram id="Q9dCot33jnijPpSF1Kv5" name="Page-1">
        <mxGraphModel dx="2494" dy="1610" grid="1" gridSize="10" guides="1" tooltips="1" connect="1" arrows="1" fold="1" page="1" pageScale="1" pageWidth="850" pageHeight="1100" math="0" shadow="0">
            <root>
                <mxCell id="0"/>
                <mxCell id="1" parent="0"/>
                <mxCell id="9" value="#HelloWorld" style="shape=ext;margin=3;double=1;whiteSpace=wrap;html=1;align=center;" parent="1" vertex="1">
                    <mxGeometry x="-70" y="-50" width="100" height="90" as="geometry"/>
                </mxCell>
                <mxCell id="28" style="edgeStyle=none;html=1;exitX=0;exitY=0.5;exitDx=0;exitDy=0;entryX=0;entryY=0.5;entryDx=0;entryDy=0;endArrow=none;endFill=0;" edge="1" parent="1" source="12" target="23">
                    <mxGeometry relative="1" as="geometry"/>
                </mxCell>
                <mxCell id="31" style="edgeStyle=none;html=1;endArrow=none;endFill=0;" edge="1" parent="1" source="12" target="32">
                    <mxGeometry relative="1" as="geometry">
                        <mxPoint x="-550" y="-660" as="targetPoint"/>
                    </mxGeometry>
                </mxCell>
                <mxCell id="33" style="edgeStyle=none;html=1;exitX=1;exitY=0.5;exitDx=0;exitDy=0;endArrow=none;endFill=0;entryX=1;entryY=0.5;entryDx=0;entryDy=0;" edge="1" parent="1" source="12" target="36">
                    <mxGeometry relative="1" as="geometry">
                        <mxPoint x="-690" y="-760" as="targetPoint"/>
                    </mxGeometry>
                </mxCell>
                <mxCell id="34" style="edgeStyle=none;html=1;exitX=0.5;exitY=1;exitDx=0;exitDy=0;endArrow=none;endFill=0;entryX=0.5;entryY=1;entryDx=0;entryDy=0;" edge="1" parent="1" source="12" target="35">
                    <mxGeometry relative="1" as="geometry">
                        <mxPoint x="-550" y="-830" as="targetPoint"/>
                    </mxGeometry>
                </mxCell>
                <mxCell id="38" style="edgeStyle=none;html=1;exitX=0;exitY=1;exitDx=0;exitDy=0;entryX=0.097;entryY=0.857;entryDx=0;entryDy=0;entryPerimeter=0;endArrow=none;endFill=0;" edge="1" parent="1" source="12" target="37">
                    <mxGeometry relative="1" as="geometry"/>
                </mxCell>
                <mxCell id="59" value="1" style="edgeStyle=none;html=1;exitX=1;exitY=0;exitDx=0;exitDy=0;endArrow=none;endFill=0;" edge="1" parent="1" source="12" target="60">
                    <mxGeometry x="-0.0715" y="-12" relative="1" as="geometry">
                        <mxPoint x="-640" y="-700" as="targetPoint"/>
                        <mxPoint as="offset"/>
                    </mxGeometry>
                </mxCell>
                <mxCell id="12" value="Pubblicazione&lt;br&gt;" style="whiteSpace=wrap;html=1;align=center;direction=west;" vertex="1" parent="1">
                    <mxGeometry x="-600" y="-780" width="100" height="40" as="geometry"/>
                </mxCell>
                <mxCell id="23" value="Titolo" style="ellipse;whiteSpace=wrap;html=1;align=center;" vertex="1" parent="1">
                    <mxGeometry x="-425" y="-780" width="100" height="40" as="geometry"/>
                </mxCell>
                <mxCell id="32" value="Anno di Pubblicazione" style="ellipse;whiteSpace=wrap;html=1;align=center;" vertex="1" parent="1">
                    <mxGeometry x="-600" y="-680" width="100" height="40" as="geometry"/>
                </mxCell>
                <mxCell id="40" style="edgeStyle=none;html=1;exitX=0;exitY=0;exitDx=0;exitDy=0;endArrow=none;endFill=0;" edge="1" parent="1" source="35" target="42">
                    <mxGeometry relative="1" as="geometry">
                        <mxPoint x="-640" y="-910" as="targetPoint"/>
                    </mxGeometry>
                </mxCell>
                <mxCell id="41" style="edgeStyle=none;html=1;exitX=1;exitY=0;exitDx=0;exitDy=0;endArrow=none;endFill=0;" edge="1" parent="1" source="35" target="43">
                    <mxGeometry relative="1" as="geometry">
                        <mxPoint x="-480" y="-910" as="targetPoint"/>
                    </mxGeometry>
                </mxCell>
                <mxCell id="35" value="Formato" style="ellipse;whiteSpace=wrap;html=1;align=center;" vertex="1" parent="1">
                    <mxGeometry x="-600" y="-870" width="100" height="40" as="geometry"/>
                </mxCell>
                <mxCell id="36" value="Casa Editrice" style="ellipse;whiteSpace=wrap;html=1;align=center;" vertex="1" parent="1">
                    <mxGeometry x="-740" y="-780" width="100" height="40" as="geometry"/>
                </mxCell>
                <mxCell id="37" value="Autori" style="ellipse;shape=doubleEllipse;margin=3;whiteSpace=wrap;html=1;align=center;" vertex="1" parent="1">
                    <mxGeometry x="-460" y="-850" width="100" height="40" as="geometry"/>
                </mxCell>
                <mxCell id="42" value="Audiolibro" style="ellipse;whiteSpace=wrap;html=1;align=center;" vertex="1" parent="1">
                    <mxGeometry x="-710" y="-940" width="100" height="40" as="geometry"/>
                </mxCell>
                <mxCell id="44" style="edgeStyle=none;html=1;exitX=0.5;exitY=0;exitDx=0;exitDy=0;endArrow=none;endFill=0;" edge="1" parent="1" source="43" target="47">
                    <mxGeometry relative="1" as="geometry">
                        <mxPoint x="-460" y="-990" as="targetPoint"/>
                    </mxGeometry>
                </mxCell>
                <mxCell id="45" style="edgeStyle=none;html=1;exitX=1;exitY=0;exitDx=0;exitDy=0;endArrow=none;endFill=0;" edge="1" parent="1" source="43" target="48">
                    <mxGeometry relative="1" as="geometry">
                        <mxPoint x="-390" y="-970" as="targetPoint"/>
                    </mxGeometry>
                </mxCell>
                <mxCell id="46" style="edgeStyle=none;html=1;exitX=1;exitY=0.5;exitDx=0;exitDy=0;endArrow=none;endFill=0;" edge="1" parent="1" source="43" target="49">
                    <mxGeometry relative="1" as="geometry">
                        <mxPoint x="-370" y="-919.6551724137931" as="targetPoint"/>
                    </mxGeometry>
                </mxCell>
                <mxCell id="43" value="Testo" style="ellipse;whiteSpace=wrap;html=1;align=center;" vertex="1" parent="1">
                    <mxGeometry x="-510" y="-940" width="100" height="40" as="geometry"/>
                </mxCell>
                <mxCell id="47" value="Attribute" style="ellipse;whiteSpace=wrap;html=1;align=center;" vertex="1" parent="1">
                    <mxGeometry x="-510" y="-1020" width="100" height="40" as="geometry"/>
                </mxCell>
                <mxCell id="48" value="Attribute" style="ellipse;whiteSpace=wrap;html=1;align=center;" vertex="1" parent="1">
                    <mxGeometry x="-400" y="-1000" width="100" height="40" as="geometry"/>
                </mxCell>
                <mxCell id="49" value="Attribute" style="ellipse;whiteSpace=wrap;html=1;align=center;" vertex="1" parent="1">
                    <mxGeometry x="-380" y="-939.6551724137931" width="100" height="40" as="geometry"/>
                </mxCell>
                <mxCell id="55" value="Articolo Scientifico" style="whiteSpace=wrap;html=1;align=center;" vertex="1" parent="1">
                    <mxGeometry x="-760" y="-580" width="100" height="40" as="geometry"/>
                </mxCell>
                <mxCell id="56" value="Libro" style="whiteSpace=wrap;html=1;align=center;" vertex="1" parent="1">
                    <mxGeometry x="-460" y="-570" width="100" height="40" as="geometry"/>
                </mxCell>
                <mxCell id="60" value="è articolo" style="shape=rhombus;perimeter=rhombusPerimeter;whiteSpace=wrap;html=1;align=center;" vertex="1" parent="1">
                    <mxGeometry x="-730" y="-710" width="120" height="60" as="geometry"/>
                </mxCell>
                <mxCell id="65" value="" style="shape=link;html=1;rounded=0;endArrow=none;endFill=0;exitX=0.5;exitY=0;exitDx=0;exitDy=0;entryX=0.5;entryY=1;entryDx=0;entryDy=0;width=-3.333333333333333;" edge="1" parent="1" source="55" target="60">
                    <mxGeometry relative="1" as="geometry">
                        <mxPoint x="-700" y="-610" as="sourcePoint"/>
                        <mxPoint x="-540" y="-610" as="targetPoint"/>
                    </mxGeometry>
                </mxCell>
                <mxCell id="66" value="1" style="resizable=0;html=1;align=right;verticalAlign=bottom;" connectable="0" vertex="1" parent="65">
                    <mxGeometry x="1" relative="1" as="geometry">
                        <mxPoint x="-10" y="60" as="offset"/>
                    </mxGeometry>
                </mxCell>
                <mxCell id="69" style="edgeStyle=none;html=1;exitX=1;exitY=0.5;exitDx=0;exitDy=0;endArrow=none;endFill=0;entryX=1;entryY=0.5;entryDx=0;entryDy=0;" edge="1" parent="1">
                    <mxGeometry relative="1" as="geometry">
                        <mxPoint x="-370.0000000000002" y="-750" as="targetPoint"/>
                        <mxPoint x="-330" y="-750" as="sourcePoint"/>
                    </mxGeometry>
                </mxCell>
                <mxCell id="70" value="1" style="edgeStyle=none;html=1;endArrow=none;endFill=0;exitX=0;exitY=0;exitDx=0;exitDy=0;" edge="1" target="71" parent="1" source="12">
                    <mxGeometry x="-0.0715" y="-12" relative="1" as="geometry">
                        <mxPoint x="-370" y="-690" as="targetPoint"/>
                        <mxPoint x="-490" y="-750" as="sourcePoint"/>
                        <mxPoint as="offset"/>
                    </mxGeometry>
                </mxCell>
                <mxCell id="71" value="è libro" style="shape=rhombus;perimeter=rhombusPerimeter;whiteSpace=wrap;html=1;align=center;" vertex="1" parent="1">
                    <mxGeometry x="-480" y="-710" width="120" height="60" as="geometry"/>
                </mxCell>
                <mxCell id="72" value="" style="shape=link;html=1;rounded=0;endArrow=none;endFill=0;exitX=0.5;exitY=0;exitDx=0;exitDy=0;entryX=0.5;entryY=1;entryDx=0;entryDy=0;width=-3.333333333333333;" edge="1" target="71" parent="1" source="56">
                    <mxGeometry relative="1" as="geometry">
                        <mxPoint x="-440" y="-570.0000000000001" as="sourcePoint"/>
                        <mxPoint x="-270" y="-600" as="targetPoint"/>
                    </mxGeometry>
                </mxCell>
                <mxCell id="73" value="1" style="resizable=0;html=1;align=right;verticalAlign=bottom;" connectable="0" vertex="1" parent="72">
                    <mxGeometry x="1" relative="1" as="geometry">
                        <mxPoint x="-10" y="60" as="offset"/>
                    </mxGeometry>
                </mxCell>
                <mxCell id="74" value="una pubblicazione è o un articolo o&lt;br&gt;&amp;nbsp;un libro ma non entrambi" style="text;html=1;align=center;verticalAlign=middle;resizable=0;points=[];autosize=1;strokeColor=none;fillColor=none;" vertex="1" parent="1">
                    <mxGeometry x="-380" y="-710" width="210" height="40" as="geometry"/>
                </mxCell>
            </root>
        </mxGraphModel>
    </diagram>
</mxfile>